# xmcd
# 
# Track frame offsets:
#     150
#     24688
#     38435
#     61217
#     82299
#     103132
#     126757
#     146136
#     169388
#     193063
# 
# Disc length: 2854
# 
# Revision: 0
# Processed by: cddbd v1.5.2PL0 Copyright (c) Steve Scherf et al.
# Submitted via: fre:ac v1.0.31
# 
DISCID=910b240a
DTITLE=中島 みゆき - Hajime Masite
DYEAR=1984
DGENRE=J-POP
TTITLE0=01-僕は青い鳥
TTITLE1=02-幸福論
TTITLE2=03-ひとり
TTITLE3=04-生まれた時から
TTITLE4=05-彼女によろしく
TTITLE5=06-不良
TTITLE6=07-シニカル・ムーン
TTITLE7=08-春までなんぼ
TTITLE8=09-僕たちの将来
TTITLE9=10-はじめまして
EXTD=YEAR: 1984\nアルバム名：はじめまして
EXTT0=
EXTT1=
EXTT2=
EXTT3=
EXTT4=
EXTT5=
EXTT6=
EXTT7=
EXTT8=
EXTT9=
PLAYORDER=
